<svg width="54" height="96" viewBox="0 0 54 96" fill="none" xmlns="http://www.w3.org/2000/svg">
<path d="M53.3203 47.9805C53.3203 48.6055 53.2031 49.1914 52.9688 49.7383C52.7344 50.2852 52.3633 50.793 51.8555 51.2617L7.79297 93.918C6.93359 94.8164 5.85938 95.2656 4.57031 95.2656C3.71094 95.2656 2.94922 95.0703 2.28516 94.6797C1.58203 94.2891 1.03516 93.7422 0.644531 93.0391C0.214844 92.375 3.21006e-07 91.5937 3.99549e-07 90.6953C5.05413e-07 89.4844 0.429688 88.4102 1.28906 87.4727L42.1875 47.9805L1.28907 8.42968C0.429695 7.53125 7.76389e-06 6.45703 7.87317e-06 5.20703C7.9483e-06 4.34765 0.214852 3.5664 0.644539 2.86328C1.03516 2.16015 1.58204 1.63281 2.28516 1.28125C2.94923 0.890621 3.71095 0.695308 4.57032 0.695308C5.85938 0.695308 6.9336 1.125 7.79298 1.98437L51.8555 44.6406C52.3633 45.1094 52.7344 45.6172 52.9688 46.1641C53.2031 46.7109 53.3203 47.3164 53.3203 47.9805Z" fill="black"/>
</svg>
