<svg width="132" height="116" viewBox="0 0 132 116" fill="none" xmlns="http://www.w3.org/2000/svg">
<path d="M80.0156 107.773V70.8594C80.0156 69.6094 79.6445 68.6328 78.9023 67.9297C78.1992 67.1875 77.2227 66.8164 75.9727 66.8164H55.7578C54.5078 66.8164 53.5117 67.1875 52.7695 67.9297C52.0273 68.6328 51.6562 69.6094 51.6562 70.8594V107.773H80.0156ZM17.3789 104.023V58.6719L62.4961 20.8789C64.7617 18.9258 67.0078 18.9258 69.2344 20.8789L114.41 58.7891V104.023C114.41 107.773 113.355 110.684 111.246 112.754C109.137 114.824 106.188 115.859 102.398 115.859H29.3906C25.6016 115.859 22.6523 114.824 20.543 112.754C18.4336 110.684 17.3789 107.773 17.3789 104.023ZM0.621094 54.2773C0.621094 52.9492 1.1875 51.8359 2.32031 50.9375L59.5078 2.89062C61.5391 1.21094 63.6875 0.371094 65.9531 0.371094C68.2188 0.371094 70.3281 1.21094 72.2812 2.89062L129.469 50.9375C130.523 51.8359 131.051 53.0078 131.051 54.4531C131.051 55.625 130.641 56.5625 129.82 57.2656C129 57.9688 128.004 58.3203 126.832 58.3203C126.129 58.3203 125.484 58.1641 124.898 57.8516C124.312 57.5 123.746 57.1094 123.199 56.6797L68.0039 10.2148C67.3008 9.62891 66.5781 9.33594 65.8359 9.33594C65.1328 9.33594 64.4883 9.62891 63.9023 10.2148L8.47266 56.6797C8.00391 57.1094 7.47656 57.5 6.89062 57.8516C6.30469 58.1641 5.66016 58.3203 4.95703 58.3203C3.62891 58.3203 2.57422 57.9102 1.79297 57.0898C1.01172 56.2305 0.621094 55.293 0.621094 54.2773ZM101.344 30.4297V15.957C101.344 14.8633 101.676 13.9844 102.34 13.3203C103.043 12.6172 103.961 12.2656 105.094 12.2656H110.719C111.852 12.2656 112.75 12.6172 113.414 13.3203C114.078 13.9844 114.41 14.8633 114.41 15.957V41.5039L101.344 30.4297Z" fill="black"/>
</svg>
